<?xml version="1.0" encoding="utf-8"?>
<!-- Generator: Adobe Illustrator 24.1.3, SVG Export Plug-In . SVG Version: 6.00 Build 0)  -->
<svg version="1.1" id="Layer_2" xmlns="http://www.w3.org/2000/svg" xmlns:xlink="http://www.w3.org/1999/xlink" x="0px" y="0px"
	 viewBox="0 0 1024 1024" style="enable-background:new 0 0 1024 1024;" xml:space="preserve">
<path d="M157.27,1024h709.47c27.85,0,50.43-22.58,50.43-50.43V407.11c0-27.85-22.58-50.43-50.43-50.43h-56.77V220.23
	C809.96,98.6,711.36,0,589.74,0H413.56C291.93,0,193.33,98.6,193.33,220.23v136.45h-36.06c-27.85,0-50.43,22.58-50.43,50.43v566.47
	C106.84,1001.42,129.42,1024,157.27,1024z M604.02,855.76c4.71,15.96-5.71,32.48-20.49,32.48h-71.38h-4.48h-71.38
	c-14.78,0-25.2-16.52-20.49-32.48l47.82-161.88c-29.06-16.8-48.67-48.15-48.67-84.13c0-53.68,43.52-97.19,97.19-97.19
	c53.68,0,97.2,43.52,97.2,97.19c0,37.56-21.34,70.08-52.52,86.26L604.02,855.76z M294.16,220.23c0-65.84,53.56-119.4,119.4-119.4
	h176.18c65.84,0,119.4,53.56,119.4,119.4v136.45H294.16V220.23z"/>
</svg>
