<svg xmlns="http://www.w3.org/2000/svg" viewBox="0 0 128 128"><title>icon27.1g</title><g id="scooter"><path d="M31.69,100.39a9.09,9.09,0,1,0,9.09,9.09A9.1,9.1,0,0,0,31.69,100.39Zm0,15.181a6.089,6.089,0,1,1,6.089-6.089A6.1,6.1,0,0,1,31.688,115.571Z"/><path d="M31.688,107.393a2.089,2.089,0,1,0,2.089,2.089A2.092,2.092,0,0,0,31.688,107.393Z"/><path d="M103.62,47.25a2,2,0,0,0-2-1.82H98.23a1.985,1.985,0,0,0-1.99,1.82L92.76,86.83H107.1Z"/><circle cx="99.93" cy="11.61" r="4.5"/><path d="M112.25,90.83H15.75a5.515,5.515,0,1,0,0,11.03h5.31a13.064,13.064,0,0,1,21.26,0H85.68a13.064,13.064,0,0,1,21.26,0h5.31a5.515,5.515,0,1,0,0-11.03Z"/><path d="M96.31,100.39a9.09,9.09,0,1,0,9.09,9.09A9.1,9.1,0,0,0,96.31,100.39Zm0,15.181a6.089,6.089,0,1,1,6.089-6.089A6.1,6.1,0,0,1,96.313,115.571Z"/><path d="M96.313,107.393a2.089,2.089,0,1,0,2.089,2.089A2.092,2.092,0,0,0,96.313,107.393Z"/><path d="M91.43,11.61a8.44,8.44,0,0,1,.276-2.11H65.77a2.105,2.105,0,1,0,0,4.21H91.7A8.459,8.459,0,0,1,91.43,11.61Z"/><path d="M102.04,41.43l0-21.595a8.21,8.21,0,0,1-4.218,0v21.6Z"/></g></svg>