<?xml version="1.0" encoding="utf-8"?>
<!-- Generator: Adobe Illustrator 16.0.0, SVG Export Plug-In . SVG Version: 6.00 Build 0)  -->
<!DOCTYPE svg PUBLIC "-//W3C//DTD SVG 1.0//EN" "http://www.w3.org/TR/2001/REC-SVG-20010904/DTD/svg10.dtd">
<svg version="1.0" id="Layer_1" xmlns="http://www.w3.org/2000/svg" xmlns:xlink="http://www.w3.org/1999/xlink" x="0px" y="0px"
	 width="100px" height="100px" viewBox="0 0 100 100" enable-background="new 0 0 100 100" xml:space="preserve">
<path d="M82.393,70.319l-9.476-53.753L71.758,10l-19.694,3.473l1.156,6.566l13.131-2.314l7.328,41.553
	c-7.849,2.39-13.783,9.118-15.063,17.39H41.384C39.778,66.286,30.83,58.333,20,58.333V65c7.136,0,13.079,4.993,14.6,11.667h-5.212
	C28.011,72.79,24.349,70,20,70c-5.521,0-10,4.476-10,10s4.479,10,10,10c4.349,0,8.011-2.79,9.388-6.667H65V80
	c0-6.468,4.118-11.934,9.856-14.036l0.886,5.02C72.356,72.588,70,76.006,70,80c0,5.524,4.479,10,10,10s10-4.476,10-10
	C90,75.306,86.751,71.396,82.393,70.319z M20,83.333c-1.843,0-3.333-1.49-3.333-3.333s1.49-3.333,3.333-3.333
	s3.333,1.49,3.333,3.333S21.843,83.333,20,83.333z M80,83.333c-1.843,0-3.333-1.49-3.333-3.333s1.49-3.333,3.333-3.333
	s3.333,1.49,3.333,3.333S81.843,83.333,80,83.333z"/>
</svg>
