<?xml version="1.0" encoding="utf-8"?>
<!-- Generator: Adobe Illustrator 23.0.1, SVG Export Plug-In . SVG Version: 6.00 Build 0)  -->
<svg version="1.1" id="Layer_1" xmlns="http://www.w3.org/2000/svg" xmlns:xlink="http://www.w3.org/1999/xlink" x="0px" y="0px"
	 viewBox="0 0 1024 1024" style="enable-background:new 0 0 1024 1024;" xml:space="preserve">
<style type="text/css">
	.st0{fill:#FFFFFF;}
</style>
<rect class="st0" width="1024" height="1024"/>
<g>
	<g>
		<path d="M973.95,827.57c-2.74,0-5.52-0.43-8.27-1.3c-14.33-4.56-22.24-19.86-17.68-34.2c14.3-44.92,21.55-91.67,21.55-138.97
			c0-252.29-205.25-457.54-457.53-457.54c-252.29,0-457.54,205.26-457.54,457.54c0,47.31,7.25,94.06,21.55,138.97
			c4.56,14.33-3.36,29.64-17.68,34.2c-14.34,4.57-29.65-3.36-34.21-17.68C8.11,758.32,0,706.01,0,653.09
			c0-282.32,229.68-512,512-512c282.32,0,512,229.68,512,512c0,52.92-8.11,105.23-24.11,155.49
			C996.2,820.16,985.49,827.57,973.95,827.57z"/>
	</g>
	<path d="M771.14,882.91H252.86c-12.56,0-22.74-10.18-22.74-22.74v-37.11c0-12.56,10.18-22.74,22.74-22.74h518.29
		c12.56,0,22.74,10.18,22.74,22.74v37.11C793.89,872.73,783.7,882.91,771.14,882.91z"/>
	<path d="M512,560.63c-51.56,0-93.36,41.8-93.36,93.36c0,51.56,41.8,93.36,93.36,93.36c51.56,0,93.36-41.8,93.36-93.36
		C605.36,602.43,563.56,560.63,512,560.63z M512,697.98c-24.29,0-43.99-19.69-43.99-43.99S487.71,610,512,610
		c24.29,0,43.99,19.69,43.99,43.99S536.29,697.98,512,697.98z"/>
	<path d="M681.92,322.41c-10.19-5.21-22.68-1.43-28.28,8.55l-129.3,230.58c22.02,2.92,41.58,13.48,55.97,28.97l111.24-240.17
		C696.37,339.95,692.12,327.61,681.92,322.41z"/>
	<path d="M181.46,667.79h-74.15c-7.62,0-13.8-6.18-13.8-13.8v0c0-7.62,6.18-13.8,13.8-13.8h74.15c7.62,0,13.8,6.18,13.8,13.8v0
		C195.26,661.61,189.08,667.79,181.46,667.79z"/>
	<path d="M268.51,430.02l-52.43-52.43c-5.39-5.39-5.39-14.13,0-19.52l0,0c5.39-5.39,14.13-5.39,19.52,0l52.43,52.43
		c5.39,5.39,5.39,14.13,0,19.52h0C282.64,435.41,273.9,435.41,268.51,430.02z"/>
	<path d="M498.2,323.45V249.3c0-7.62,6.18-13.8,13.8-13.8h0c7.62,0,13.8,6.18,13.8,13.8v74.15c0,7.62-6.18,13.8-13.8,13.8h0
		C504.38,337.25,498.2,331.07,498.2,323.45z"/>
	<path d="M735.97,410.5l52.43-52.43c5.39-5.39,14.13-5.39,19.52,0l0,0c5.39,5.39,5.39,14.13,0,19.52l-52.43,52.43
		c-5.39,5.39-14.13,5.39-19.52,0v0C730.58,424.63,730.58,415.89,735.97,410.5z"/>
	<path d="M842.54,640.19h74.15c7.62,0,13.8,6.18,13.8,13.8v0c0,7.62-6.18,13.8-13.8,13.8h-74.15c-7.62,0-13.8-6.18-13.8-13.8v0
		C828.74,646.37,834.92,640.19,842.54,640.19z"/>
</g>
</svg>
