<?xml version="1.0" encoding="utf-8"?>
<!-- Generator: Adobe Illustrator 24.1.3, SVG Export Plug-In . SVG Version: 6.00 Build 0)  -->
<svg version="1.1" id="Layer_2" xmlns="http://www.w3.org/2000/svg" xmlns:xlink="http://www.w3.org/1999/xlink" x="0px" y="0px"
	 viewBox="0 0 1024 1024" style="enable-background:new 0 0 1024 1024;" xml:space="preserve">
<g>
	<path d="M662.9,0H367.27c-38.43,0-69.59,31.16-69.59,69.59v38.5c-3.67-1.53-7.68-2.38-11.89-2.38h-128.7
		c-27.61,0-41.43,33.38-21.91,52.9l128.7,128.7c9.77,9.77,23.02,11.19,33.81,6.7v102.77c-3.67-1.53-7.68-2.38-11.89-2.38h-128.7
		c-27.61,0-41.43,33.38-21.91,52.9l128.7,128.7c9.77,9.77,23.02,11.19,33.81,6.7v102.77c-3.67-1.53-7.68-2.38-11.89-2.38h-128.7
		c-27.61,0-41.43,33.38-21.91,52.9l128.7,128.7c9.77,9.77,23.02,11.19,33.81,6.7v83.05c0,38.43,31.15,69.59,69.59,69.59H662.9
		c38.43,0,69.59-31.15,69.59-69.59v-81.26c9.38,1.83,19.66-0.51,27.64-8.49l128.7-128.7c19.52-19.52,5.7-52.9-21.91-52.9h-128.7
		c-1.96,0-3.87,0.23-5.72,0.58v-99.18c9.38,1.83,19.66-0.51,27.64-8.49l128.7-128.7c19.52-19.52,5.7-52.9-21.91-52.9h-128.7
		c-1.96,0-3.87,0.23-5.72,0.58v-99.18c9.38,1.83,19.66-0.51,27.64-8.49l128.7-128.7c19.52-19.52,5.7-52.9-21.91-52.9h-128.7
		c-1.96,0-3.87,0.23-5.72,0.58V69.59C732.48,31.16,701.33,0,662.9,0z M515.09,957.58c-76.35,0-138.46-62.11-138.46-138.45
		s62.11-138.45,138.46-138.45c76.34,0,138.45,62.11,138.45,138.45S591.43,957.58,515.09,957.58z M515.09,650.45
		c-76.35,0-138.46-62.11-138.46-138.45s62.11-138.45,138.46-138.45c76.34,0,138.45,62.11,138.45,138.45S591.43,650.45,515.09,650.45
		z M515.09,343.32c-76.35,0-138.46-62.11-138.46-138.45S438.74,66.42,515.09,66.42c76.34,0,138.45,62.11,138.45,138.45
		S591.43,343.32,515.09,343.32z"/>
	<path d="M515.09,108.1c-53.37,0-96.77,43.42-96.77,96.77s43.41,96.77,96.77,96.77c53.36,0,96.77-43.42,96.77-96.77
		S568.45,108.1,515.09,108.1z"/>
	<path d="M515.09,415.22c-53.37,0-96.77,43.42-96.77,96.77c0,53.36,43.41,96.77,96.77,96.77c53.36,0,96.77-43.42,96.77-96.77
		C611.85,458.64,568.45,415.22,515.09,415.22z"/>
	<path d="M515.09,722.36c-53.37,0-96.77,43.42-96.77,96.77s43.41,96.77,96.77,96.77c53.36,0,96.77-43.42,96.77-96.77
		S568.45,722.36,515.09,722.36z"/>
</g>
</svg>
